<svg width="98" height="98" viewBox="0 0 98 98" fill="none" xmlns="http://www.w3.org/2000/svg">
<g clip-path="url(#clip0_249_66)">
<rect width="98" height="98" rx="14" fill="#FFFF01"/>
<path d="M17.5332 30.6H28.7832V44.3H39.4332V30.6H50.7332V65H39.4332V51.5H28.7832V65H17.5332V30.6ZM57.2305 30.6H81.3805V38.2H69.3805V44.45H80.3305V50.75H69.3805V57.4H81.3805V65H57.2305V30.6Z" fill="black"/>
<path d="M17 43.5937H81V46.4889L67.5263 47.6952L61.6316 48.7206L55.7368 49.746L49.8421 50.7714L43.9474 51.7968L38.0526 52.8222L32.1579 53.8476L26.2121 55.6286L21.3636 57.5714L17 60V43.5937Z" fill="#FFFF01"/>
</g>
<defs>
<clipPath id="clip0_249_66">
<rect width="98" height="98" fill="white"/>
</clipPath>
</defs>
</svg>
